<?xml version="1.0" standalone="no"?>
<!DOCTYPE svg PUBLIC "-//W3C//DTD SVG 20010904//EN"
 "http://www.w3.org/TR/2001/REC-SVG-20010904/DTD/svg10.dtd">
<svg version="1.0" xmlns="http://www.w3.org/2000/svg"
 width="142.000000pt" height="52.000000pt" viewBox="0 0 142.000000 52.000000"
 preserveAspectRatio="xMidYMid meet">

<g transform="translate(0.000000,52.000000) scale(0.100000,-0.100000)"
fill="#000000" stroke="none">
<path d="M181 416 c-16 -19 -5 -53 20 -61 29 -9 23 -26 -7 -19 -22 6 -25 4
-22 -12 4 -23 61 -32 84 -13 23 19 17 42 -18 71 l-33 28 34 -7 c26 -5 33 -3
29 8 -6 20 -72 24 -87 5z"/>
<path d="M295 365 c0 -64 0 -65 27 -65 29 0 45 14 28 25 -15 10 -12 35 5 35
10 0 15 -10 15 -30 0 -25 4 -30 23 -30 33 0 36 6 22 48 -11 31 -18 38 -44 40
-23 2 -31 8 -31 23 0 13 -7 19 -22 19 -22 0 -23 -4 -23 -65z"/>
<path d="M899 423 c-2 -10 -5 -26 -8 -35 -2 -5 -3 -25 -3 -45 -1 -35 1 -38 28
-38 28 0 29 2 26 40 -2 22 -8 46 -14 53 -7 8 -7 12 1 12 7 0 9 5 6 10 -7 12
-34 14 -36 3z"/>
<path d="M450 376 c-6 -8 -10 -25 -8 -38 7 -49 109 -49 116 0 5 34 -15 52 -58
52 -21 0 -43 -7 -50 -14z m68 -28 c-6 -18 -28 -21 -28 -4 0 9 7 16 16 16 9 0
14 -5 12 -12z"/>
<path d="M585 325 l0 -65 34 0 c28 0 33 3 28 20 -4 16 0 20 19 20 14 0 30 10
40 25 16 24 16 27 -1 45 -14 15 -31 20 -69 20 l-51 0 0 -65z m85 20 c0 -8 -7
-15 -15 -15 -8 0 -15 7 -15 15 0 8 7 15 15 15 8 0 15 -7 15 -15z"/>
<path d="M735 325 l0 -65 34 0 c28 0 33 3 28 20 -4 16 0 20 18 20 24 0 55 23
55 41 0 6 -5 19 -10 30 -9 15 -22 19 -68 19 l-57 0 0 -65z m85 20 c0 -8 -7
-15 -15 -15 -8 0 -15 7 -15 15 0 8 7 15 15 15 8 0 15 -7 15 -15z"/>
<path d="M963 345 c0 -45 1 -45 34 -45 33 0 34 1 28 30 -4 18 -3 30 4 30 5 0
11 -12 13 -27 2 -22 9 -29 31 -31 28 -3 28 -3 21 35 -4 21 -9 41 -11 46 -2 4
-30 7 -62 7 l-58 0 0 -45z"/>
<path d="M1126 374 c-9 -8 -16 -20 -16 -25 0 -17 41 -51 55 -45 8 3 17 1 20
-4 4 -6 -3 -10 -14 -10 -28 0 -52 -11 -45 -21 9 -15 81 -10 98 7 9 8 16 27 16
42 0 15 3 37 6 50 6 21 4 22 -49 22 -37 0 -61 -5 -71 -16z m64 -29 c0 -8 -7
-15 -15 -15 -8 0 -15 7 -15 15 0 8 7 15 15 15 8 0 15 -7 15 -15z"/>
<path d="M506 138 l1 -63 57 -3 c54 -3 56 -2 56 23 0 25 -25 36 -32 13 -3 -7
-10 -8 -17 -3 -9 5 -12 21 -7 51 l6 44 -33 0 -33 0 2 -62z"/>
<path d="M645 180 c3 -11 2 -20 -2 -20 -5 0 -9 -19 -8 -42 1 -41 3 -43 30 -43
29 0 30 2 27 40 -2 22 -8 46 -14 53 -7 8 -7 12 1 12 7 0 9 5 6 10 -3 6 -15 10
-26 10 -16 0 -19 -5 -14 -20z"/>
<path d="M836 171 c-34 -37 21 -128 57 -92 7 7 6 15 -3 26 -10 11 -10 18 -1
29 9 11 9 19 -1 35 -16 26 -30 26 -52 2z"/>
<path d="M725 156 c-16 -12 -17 -16 -6 -30 11 -13 11 -19 1 -31 -15 -18 4 -28
46 -23 29 3 58 37 38 45 -7 2 -10 13 -7 23 4 14 0 20 -10 20 -8 0 -21 2 -29 5
-7 3 -22 -1 -33 -9z"/>
</g>
</svg>
